<svg xmlns="http://www.w3.org/2000/svg" viewBox="0 0 135 135"><defs><style>.cls-1,.cls-2{fill:#fff;}.cls-2{fill-opacity:0;stroke:#fff;stroke-linejoin:round;stroke-width:5px;}.cls-3{fill:#c8535a;fill-rule:evenodd;}</style></defs><title>Asset 1</title><g id="Layer_2" data-name="Layer 2"><g id="Layer_1-2" data-name="Layer 1"><circle id="bg" class="cls-1" cx="67.5" cy="67.5" r="60"/><circle id="countur" class="cls-2" cx="67.5" cy="67.5" r="65"/><path id="giars" class="cls-3" d="M65,68.37a10,10,0,1,1-10-10A10,10,0,0,1,65,68.37Zm30,20a5,5,0,1,1-5-5A5,5,0,0,1,95,88.37Zm0-40a5,5,0,1,1-5-5A5,5,0,0,1,95,48.37ZM80,64.82a1.2,1.2,0,0,0-.94-1.17l-5.94-.9a24.94,24.94,0,0,0-1.33-3.21c1.1-1.52,2.27-2.93,3.4-4.45a1.32,1.32,0,0,0,.28-.74c0-1.1-4.61-5.31-5.63-6.25a1.23,1.23,0,0,0-.82-.31,1.18,1.18,0,0,0-.78.27l-4.61,3.48a20.33,20.33,0,0,0-2.93-1.22l-.9-6a1.22,1.22,0,0,0-1.17-1H51.36a1.26,1.26,0,0,0-1.17.94,40.74,40.74,0,0,0-.9,6,22,22,0,0,0-3,1.25l-4.49-3.51a1.41,1.41,0,0,0-.82-.27c-1.13,0-5.51,4.72-6.29,5.78a1.18,1.18,0,0,0-.27.78,1.47,1.47,0,0,0,.27.78c1.25,1.48,2.42,2.93,3.52,4.49a16.83,16.83,0,0,0-1.25,3l-6.06.94A1.21,1.21,0,0,0,30,64.7v7.23a1.16,1.16,0,0,0,.94,1.13l5.94.94a20.91,20.91,0,0,0,1.36,3.2c-1.13,1.52-2.3,3-3.43,4.45a1.38,1.38,0,0,0-.28.75c0,1.13,4.61,5.31,5.63,6.24A1.24,1.24,0,0,0,41,89a1.1,1.1,0,0,0,.78-.28l4.61-3.47a19.22,19.22,0,0,0,2.93,1.21l.9,6a1.22,1.22,0,0,0,1.17,1h7.27a1.25,1.25,0,0,0,1.17-.94,38.57,38.57,0,0,0,.9-6.05,16.33,16.33,0,0,0,3-1.21l4.49,3.51A1.5,1.5,0,0,0,69,89c1.13,0,5.51-4.77,6.29-5.82a1.06,1.06,0,0,0,.27-.74,1.32,1.32,0,0,0-.27-.79c-1.25-1.48-2.42-2.93-3.52-4.49a16.83,16.83,0,0,0,1.25-3l6.06-.93A1.23,1.23,0,0,0,80,72V64.82Zm25,20.82c0-.59-5-1.14-5.82-1.21a10.5,10.5,0,0,0-1.17-2,36.76,36.76,0,0,0,2-5.4.37.37,0,0,0-.16-.27C99.37,76.46,95.19,74,95,74l-.24.07a35.89,35.89,0,0,0-3.59,4.38,8.34,8.34,0,0,0-2.34,0C88.43,77.86,85.51,74,85,74c-.2,0-4.38,2.5-4.85,2.73A.33.33,0,0,0,80,77a37.19,37.19,0,0,0,2,5.4,10,10,0,0,0-1.17,2C80,84.5,75,85.05,75,85.64v5.47c0,.58,5,1.13,5.82,1.21a9.56,9.56,0,0,0,1.17,2,37.07,37.07,0,0,0-2,5.39.33.33,0,0,0,.15.27c.47.28,4.65,2.78,4.85,2.78.51,0,3.43-3.91,3.83-4.5a8.34,8.34,0,0,0,2.34,0c.39.59,3.32,4.5,3.83,4.5.2,0,4.37-2.5,4.84-2.78a.3.3,0,0,0,.16-.27,36.64,36.64,0,0,0-2-5.39,10,10,0,0,0,1.17-2c.78-.08,5.82-.63,5.82-1.21Zm0-40c0-.59-5-1.14-5.82-1.21a10.5,10.5,0,0,0-1.17-2,36.76,36.76,0,0,0,2-5.4.37.37,0,0,0-.16-.27C99.37,36.46,95.19,34,95,34l-.24.07a35.89,35.89,0,0,0-3.59,4.38,8.34,8.34,0,0,0-2.34,0C88.43,37.86,85.51,34,85,34c-.2,0-4.38,2.5-4.85,2.73A.33.33,0,0,0,80,37a37.19,37.19,0,0,0,2,5.4,10,10,0,0,0-1.17,2C80,44.5,75,45.05,75,45.64v5.47c0,.58,5,1.13,5.82,1.21a9.56,9.56,0,0,0,1.17,2,37.07,37.07,0,0,0-2,5.39.33.33,0,0,0,.15.27c.47.28,4.65,2.78,4.85,2.78.51,0,3.43-3.91,3.83-4.5a8.34,8.34,0,0,0,2.34,0c.39.59,3.32,4.5,3.83,4.5.2,0,4.37-2.5,4.84-2.78a.3.3,0,0,0,.16-.27,36.64,36.64,0,0,0-2-5.39,10,10,0,0,0,1.17-2c.78-.08,5.82-.63,5.82-1.21Z"/></g></g></svg>