<?xml version="1.0" encoding="utf-8"?>
<!-- Generator: Adobe Illustrator 24.0.1, SVG Export Plug-In . SVG Version: 6.00 Build 0)  -->
<svg version="1.1" id="Layer_1" xmlns="http://www.w3.org/2000/svg" xmlns:xlink="http://www.w3.org/1999/xlink" x="0px" y="0px"
	 viewBox="0 0 135 135" style="enable-background:new 0 0 135 135;" xml:space="preserve">
<style type="text/css">
	.st0{fill:#FFFFFF;}
	.st1{fill:#FFFFFF;fill-opacity:0;stroke:#FFFFFF;stroke-width:5;stroke-linejoin:round;}
	.st2{fill-rule:evenodd;clip-rule:evenodd;fill:#C8535A;}
</style>
<title>Asset 1</title>
<circle id="bg" class="st0" cx="67.5" cy="67.5" r="60"/>
<circle id="countur" class="st1" cx="67.5" cy="67.5" r="65"/>
<path id="rocket" class="st2" d="M90.6,48.1c0,2.1-1.7,3.8-3.8,3.8s-3.8-1.7-3.8-3.8s1.7-3.8,3.8-3.8C88.9,44.4,90.6,46.1,90.6,48.1
	z M99.4,36.9c0-0.7-0.6-1.3-1.3-1.3c-13.6,0-21.1,3.1-30.8,12.8c-2.2,2.3-4.5,4.8-6.9,7.6l-14.8,0.8c-0.4,0-0.8,0.3-1,0.6l-8.8,15
	C35.5,73,35.6,73.6,36,74l2.5,2.5c0.2,0.2,0.6,0.3,0.9,0.3c0.1,0,0.2,0,0.3,0l10.8-3.3l11,11l-3.3,10.8c-0.1,0.4,0,0.9,0.3,1.3
	L61,99c0.2,0.2,0.6,0.3,0.9,0.3c0.2,0,0.4,0,0.6-0.2l15-8.8c0.4-0.2,0.6-0.6,0.6-1l0.8-14.8c2.8-2.3,5.3-4.7,7.6-6.9
	C95.8,58.5,99.4,49.8,99.4,36.9z"/>
</svg>
