<?xml version="1.0" encoding="utf-8"?>
<!-- Generator: Adobe Illustrator 24.0.1, SVG Export Plug-In . SVG Version: 6.00 Build 0)  -->
<svg version="1.1" id="Layer_1" xmlns="http://www.w3.org/2000/svg" xmlns:xlink="http://www.w3.org/1999/xlink" x="0px" y="0px"
	 viewBox="0 0 135 135" style="enable-background:new 0 0 135 135;" xml:space="preserve">
<style type="text/css">
	.st0{fill:#FFFFFF;}
	.st1{fill:#FFFFFF;fill-opacity:0;stroke:#FFFFFF;stroke-width:5;stroke-linejoin:round;}
	.st2{fill-rule:evenodd;clip-rule:evenodd;fill:#DF5C64;}
</style>
<title>Asset 1</title>
<circle id="bg" class="st0" cx="67.5" cy="67.5" r="60"/>
<circle id="countur" class="st1" cx="67.5" cy="67.5" r="65"/>
<path class="st2" d="M77.5,53.2c0-5-5.8-7.1-10-7.1c-0.8,0-1.4,0.7-1.4,1.4c0,0.8,0.7,1.4,1.4,1.4c2.4,0,7.1,1.2,7.1,4.3
	c0,0.8,0.7,1.4,1.4,1.4C76.8,54.6,77.5,54,77.5,53.2z M84.6,53.2c0,2.9-1.2,5.8-3,8c-0.8,1-1.8,1.9-2.7,2.9
	c-3.2,3.8-5.8,8.3-6.3,13.3H62.4c-0.4-5-3.1-9.5-6.3-13.3c-0.9-1-1.9-2-2.7-2.9c-1.9-2.2-3-5.2-3-8c0-8.9,9.1-14.3,17.1-14.3
	C75.6,38.9,84.6,44.3,84.6,53.2z M90.4,53.2c0-12.1-11.6-20-22.9-20c-11.3,0-22.9,7.9-22.9,20c0,4.6,1.5,8.6,4.6,12
	c3.1,3.4,7.1,8.2,7.5,12.9c-1.3,0.8-2.1,2.2-2.1,3.7c0,1.1,0.4,2.1,1.1,2.9c-0.7,0.8-1.1,1.8-1.1,2.9c0,1.5,0.8,2.8,2,3.6
	c-0.4,0.6-0.6,1.4-0.6,2.1c0,2.9,2.3,4.3,4.9,4.3c1.2,2.6,3.8,4.3,6.6,4.3c2.8,0,5.4-1.7,6.6-4.3c2.6,0,4.9-1.4,4.9-4.3
	c0-0.7-0.2-1.5-0.6-2.1c1.3-0.8,2-2.1,2-3.6c0-1.1-0.4-2.1-1.1-2.9c0.7-0.8,1.1-1.8,1.1-2.9c0-1.5-0.8-2.9-2.1-3.7
	c0.4-4.8,4.4-9.6,7.5-12.9C88.8,61.8,90.4,57.8,90.4,53.2z"/>
</svg>
